<svg width="200" height="105" viewBox="0 0 200 105" fill="none" xmlns="http://www.w3.org/2000/svg">
<path d="M136.524 49.2483L139.443 40.6107L142.357 49.2525L136.524 49.2483ZM137.499 37.7259L130.025 56.9917H133.732L135.639 51.977H143.154L145.061 56.9917H149.004L141.67 37.7259H137.499ZM168.709 48.3499H175.744V45.5832H168.692V40.6107H177.178L177.667 37.768H165.098V56.9959H178V54.0436H168.721L168.709 48.3499ZM120.367 49.2862H124.369V54.0774C123.431 54.5087 122.408 54.7248 121.375 54.71C120.082 54.7076 118.81 54.386 117.672 53.7737C115.955 52.8079 115.091 50.7877 115.091 47.6076C115.064 46.0207 115.35 44.4441 115.934 42.9683C116.681 41.1716 118.439 40.2353 120.995 40.2353C122.722 40.2194 124.409 40.7574 125.808 41.7705L127.6 39.5985C125.675 38.1811 123.335 37.4397 120.945 37.4897C114.703 37.4897 111.181 41.4162 111.181 47.363C111.181 53.3098 114.846 57.2406 121.206 57.2406C123.564 57.286 125.895 56.7317 127.98 55.6294V46.4773H119.844L120.367 49.2862ZM147.115 40.6107H152.834V56.9959H156.385V40.6107H162.184L162.669 37.768H147.115V40.6107ZM67.0315 47.0425H63.8556V40.5727H66.4705C68.9041 40.5727 71.0761 40.9945 71.0761 43.7865C71.0761 46.2538 69.4271 47.0425 67.0357 47.0425M71.9365 38.7043C70.7345 38.0591 69.7223 37.7638 66.1331 37.7638H60.3002V56.9917H63.8556V49.767H67.1074C69.7223 49.767 71.2195 49.282 72.7168 48.1601C73.4503 47.6424 74.0454 46.9524 74.4498 46.1508C74.8543 45.3492 75.0557 44.4606 75.0364 43.563C75.0364 41.4289 73.8724 39.7672 71.9323 38.7043M102.451 44.1239C101.991 44.9809 101.59 45.8687 101.253 46.781C100.908 45.8724 100.51 44.9851 100.059 44.1239L96.5039 37.768H92.1302L99.2706 49.2145V56.9959H102.974V49.2103L110.224 37.7638H106.074L102.451 44.1239ZM81.5231 49.2483L84.4754 40.6107L87.3897 49.2525L81.5231 49.2483ZM82.5015 37.7259L75.0196 56.9917H78.7184L80.6205 51.977H88.1447L90.051 56.9917H93.9775L86.6685 37.7259H82.5015Z" fill="#5B6271"/>
<path d="M43.7336 44.7605L36.8168 50.3952L29.9084 56.0214H29.8873L23 50.4458V61.6561L28.6347 66.2279L28.7949 66.3587C29.0995 66.5859 29.4693 66.7087 29.8493 66.7087C30.2293 66.7087 30.5992 66.5859 30.9037 66.3587C30.9037 66.3587 50.5703 49.6487 50.5745 47.3796V39.1511L43.7336 44.7605Z" fill="#5B6271"/>
<path d="M23.0041 28V39.223L29.8408 44.7606L36.7534 39.1302L29.7986 33.4997L23.0041 28Z" fill="#9CA2AF"/>
<path d="M143.481 70.173C143.475 69.908 143.434 69.6548 143.351 69.4251C143.269 69.1896 143.151 68.9895 142.998 68.8187C142.844 68.6479 142.644 68.5184 142.415 68.4124C142.179 68.3123 141.914 68.2593 141.596 68.2593C141.314 68.2593 141.037 68.3064 140.795 68.4124C140.542 68.5184 140.336 68.6479 140.142 68.8187C139.965 68.9895 139.812 69.1896 139.688 69.4251C139.565 69.6607 139.494 69.908 139.488 70.173H143.486H143.481ZM144.834 70.7088V70.9267C144.834 71.0091 144.834 71.0798 144.829 71.1505H139.482C139.488 71.4331 139.553 71.6922 139.677 71.9513C139.8 72.2045 139.953 72.4105 140.154 72.5989C140.354 72.7756 140.583 72.9228 140.842 73.0347C141.102 73.1348 141.378 73.1877 141.667 73.1877C142.12 73.1877 142.515 73.0877 142.85 72.8934C143.18 72.6931 143.434 72.4459 143.628 72.1632L144.564 72.9111C144.199 73.388 143.786 73.7354 143.292 73.965C142.809 74.1829 142.262 74.2947 141.667 74.2947C141.149 74.2947 140.689 74.2123 140.254 74.0416C139.818 73.8708 139.447 73.6352 139.129 73.3232C138.817 73.0229 138.57 72.646 138.393 72.2162C138.216 71.7804 138.116 71.2976 138.116 70.7678C138.116 70.2378 138.205 69.7667 138.381 69.3192C138.552 68.8717 138.805 68.5007 139.111 68.1887C139.423 67.8766 139.8 67.6293 140.218 67.4585C140.642 67.2878 141.108 67.1995 141.59 67.1995C142.073 67.1995 142.527 67.2818 142.933 67.4409C143.339 67.5999 143.687 67.8354 143.952 68.1357C144.234 68.4419 144.447 68.8069 144.599 69.2367C144.764 69.6902 144.834 70.173 144.834 70.7088Z" fill="#9CA2AF"/>
<path d="M158.307 67.4058L156.781 72.5932L155.139 67.4058H153.732L152.113 72.5932L150.575 67.4058H149.133L151.377 74.136H152.76L154.409 69.0897H154.432L156.093 74.136H157.488L159.709 67.4058H158.307Z" fill="#9CA2AF"/>
<path d="M165.437 70.7619C165.437 70.438 165.391 70.1319 165.285 69.8433C165.178 69.5489 165.043 69.3015 164.849 69.0778C164.655 68.854 164.425 68.6833 164.142 68.542C163.86 68.4125 163.542 68.3418 163.183 68.3418C162.823 68.3418 162.505 68.4125 162.223 68.542C161.94 68.6716 161.705 68.854 161.517 69.0778C161.322 69.3075 161.187 69.5548 161.081 69.8433C160.981 70.1377 160.927 70.4439 160.927 70.7619C160.927 71.0798 160.975 71.386 161.081 71.6745C161.187 71.9631 161.322 72.2339 161.517 72.4517C161.71 72.6756 161.946 72.8581 162.223 72.9876C162.505 73.1172 162.823 73.1879 163.183 73.1879C163.542 73.1879 163.86 73.1172 164.142 72.9876C164.425 72.8581 164.661 72.6756 164.849 72.4517C165.043 72.2339 165.178 71.969 165.285 71.6745C165.396 71.386 165.437 71.0798 165.437 70.7619ZM166.827 70.756C166.827 71.2801 166.739 71.757 166.55 72.1868C166.374 72.6226 166.103 72.9935 165.785 73.3173C165.461 73.6294 165.078 73.8826 164.637 74.0533C164.19 74.2242 163.719 74.3184 163.206 74.3184C162.694 74.3184 162.217 74.23 161.775 74.0533C161.327 73.8826 160.951 73.6294 160.627 73.3173C160.303 73.0053 160.05 72.6226 159.868 72.1868C159.685 71.7511 159.59 71.2801 159.59 70.756C159.59 70.2319 159.679 69.755 159.868 69.3311C160.044 68.8953 160.303 68.5303 160.627 68.2241C160.951 67.9119 161.334 67.6647 161.775 67.4939C162.223 67.3231 162.694 67.2349 163.206 67.2349C163.719 67.2349 164.201 67.3231 164.637 67.4939C165.085 67.6647 165.461 67.9061 165.785 68.2241C166.109 68.542 166.368 68.913 166.55 69.3311C166.739 69.7667 166.827 70.2378 166.827 70.756Z" fill="#9CA2AF"/>
<path d="M173.298 65.3271H171.962V74.136H173.298V65.3271Z" fill="#9CA2AF"/>
<path d="M148.598 68.4244V67.4058H146.919V65.3271H145.594V72.1457C145.594 72.8406 145.765 73.3646 146.095 73.7238C146.424 74.0771 146.913 74.2478 147.55 74.2478C147.762 74.2478 147.956 74.2302 148.155 74.2007C148.315 74.1713 148.462 74.1419 148.592 74.0889V72.9878C148.492 73.029 148.38 73.0584 148.261 73.0878C148.114 73.1173 147.985 73.1291 147.867 73.1291C147.537 73.1291 147.29 73.0407 147.137 72.87C146.984 72.6993 146.919 72.4107 146.919 72.0044V68.4361H148.598V68.4244Z" fill="#9CA2AF"/>
<path d="M170.837 67.229C170.384 67.229 169.977 67.3526 169.618 67.594C169.253 67.8354 168.929 68.1534 168.753 68.5538V67.4115H167.492V74.1417H168.829V70.6088C168.829 70.3261 168.871 70.0494 168.942 69.7903C169.011 69.5253 169.136 69.3075 169.283 69.1014C169.436 68.9013 169.636 68.7481 169.866 68.6245C170.102 68.5009 170.384 68.4478 170.707 68.4478C170.919 68.4478 171.12 68.4713 171.314 68.5184V67.2761C171.179 67.2407 171.025 67.2349 170.837 67.2349V67.229Z" fill="#9CA2AF"/>
<path d="M137.268 68.8953C137.162 68.5656 137.015 68.2829 136.809 68.0298C136.597 67.7883 136.35 67.5823 136.032 67.4468C135.72 67.2997 135.343 67.229 134.907 67.229C134.666 67.229 134.424 67.2584 134.195 67.3291C133.977 67.3997 133.759 67.4881 133.57 67.6058C133.376 67.7295 133.217 67.859 133.07 68.018C132.917 68.1711 132.764 68.3419 132.675 68.5184V67.4174H131.421V74.1476H132.758V70.5735C132.758 69.9081 132.929 69.3605 133.258 68.9659C133.588 68.5597 134.024 68.3595 134.554 68.3595C134.866 68.3595 135.119 68.4242 135.319 68.5303C135.52 68.6422 135.673 68.7952 135.779 68.9836C135.89 69.1779 135.973 69.3899 136.014 69.6373C136.055 69.8786 136.073 70.1377 136.073 70.4145V74.1417H137.415V69.967C137.415 69.5843 137.368 69.225 137.262 68.8894L137.268 68.8953Z" fill="#9CA2AF"/>
<path d="M176.137 67.4058H177.786L174.947 70.7974L177.745 74.136H176.096L173.298 70.7974L176.137 67.4058Z" fill="#9CA2AF"/>
<path d="M117.843 73.0877C118.173 73.0877 118.473 73.0348 118.738 72.9229C119.003 72.8051 119.233 72.6461 119.415 72.4518C119.598 72.2516 119.739 72.0102 119.845 71.7334C119.945 71.4508 119.998 71.1387 119.998 70.809C119.998 70.4792 119.945 70.173 119.845 69.8963C119.745 69.6078 119.604 69.3723 119.415 69.178C119.233 68.9777 119.003 68.8188 118.738 68.7069C118.473 68.5892 118.173 68.5302 117.843 68.5302C117.514 68.5302 117.213 68.5892 116.948 68.7069C116.683 68.8188 116.454 68.9719 116.271 69.178C116.089 69.3723 115.947 69.6078 115.841 69.8963C115.741 70.173 115.688 70.4734 115.688 70.809C115.688 71.1446 115.741 71.4508 115.841 71.7334C115.941 72.0102 116.083 72.2516 116.271 72.4518C116.454 72.6461 116.683 72.7992 116.948 72.9229C117.213 73.0348 117.514 73.0877 117.843 73.0877ZM114.452 63.6489H115.694V68.4772H115.724C115.947 68.1358 116.259 67.8707 116.677 67.6765C117.09 67.4763 117.531 67.3703 118.002 67.3703C118.509 67.3703 118.962 67.4586 119.368 67.6352C119.781 67.8119 120.134 68.0533 120.416 68.3653C120.711 68.6715 120.935 69.0308 121.094 69.4547C121.247 69.8669 121.329 70.3202 121.329 70.809C121.329 71.2977 121.253 71.7452 121.094 72.1633C120.935 72.5754 120.711 72.9405 120.416 73.2526C120.134 73.5646 119.781 73.812 119.368 73.9827C118.962 74.1593 118.509 74.2477 118.002 74.2477C117.561 74.2477 117.131 74.1535 116.707 73.9592C116.295 73.7649 115.965 73.494 115.729 73.1467H115.7V74.0828H114.458V63.6548L114.452 63.6489Z" fill="#9CA2AF"/>
<path d="M121.411 67.5415H122.848L124.791 72.6466H124.821L126.67 67.5415H128.006L124.903 75.4905C124.791 75.7732 124.679 76.0322 124.556 76.2619C124.438 76.5033 124.291 76.7035 124.126 76.8684C123.961 77.0333 123.761 77.1628 123.519 77.257C123.29 77.3512 123.001 77.3924 122.666 77.3924C122.483 77.3924 122.295 77.3807 122.1 77.3512C121.918 77.3336 121.735 77.2865 121.565 77.2158L121.718 76.0853C121.965 76.1854 122.212 76.2383 122.465 76.2383C122.66 76.2383 122.819 76.2089 122.948 76.156C123.084 76.1089 123.201 76.0382 123.296 75.9322C123.396 75.8379 123.478 75.732 123.543 75.6024C123.608 75.4729 123.673 75.3256 123.737 75.1608L124.138 74.1245L121.417 67.5415H121.411Z" fill="#9CA2AF"/>
</svg>
