<svg width="200" height="105" viewBox="0 0 200 105" fill="none" xmlns="http://www.w3.org/2000/svg">
<path d="M72.5639 40.2173C72.2449 40.2173 71.9739 40.4489 71.924 40.7642L68.2315 64.1812C68.2181 64.2668 68.2233 64.3542 68.2469 64.4375C68.2705 64.5208 68.3119 64.598 68.3682 64.6638C68.4244 64.7296 68.4943 64.7825 68.5729 64.8187C68.6516 64.8549 68.7371 64.8737 68.8237 64.8737H73.2028C73.5213 64.8737 73.7927 64.6417 73.8426 64.3268L74.9273 57.4502C74.9767 57.1353 75.2481 56.9033 75.5671 56.9033H79.5485C84.2003 56.9033 88.1491 53.5091 88.8704 48.9099C89.5977 44.2718 85.9743 40.2274 80.8387 40.2173H72.5639ZM76.8207 45.4449H80.0061C82.6286 45.4449 83.4827 46.9923 83.2126 48.7035C82.9426 50.4184 81.6163 51.6816 79.0794 51.6816H75.8372L76.8207 45.4449ZM97.7768 47.0367C96.6711 47.0408 95.3987 47.2673 93.9703 47.8623C90.6938 49.228 89.1203 52.0505 88.4521 54.1082C88.4521 54.1082 86.3253 60.3862 91.1304 63.8352C91.1304 63.8352 95.5868 67.1557 100.603 63.6307L100.517 64.1812C100.504 64.2667 100.509 64.3541 100.532 64.4373C100.556 64.5205 100.597 64.5977 100.653 64.6635C100.709 64.7293 100.779 64.7821 100.858 64.8184C100.936 64.8547 101.022 64.8736 101.108 64.8737H105.265C105.584 64.8737 105.855 64.6417 105.905 64.3268L108.434 48.2907C108.447 48.2052 108.442 48.1177 108.419 48.0344C108.395 47.951 108.354 47.8737 108.298 47.8078C108.242 47.7419 108.172 47.689 108.093 47.6527C108.015 47.6163 107.929 47.5974 107.843 47.5973H103.685C103.366 47.5973 103.095 47.8294 103.046 48.1442L102.91 49.0074C102.91 49.0074 101.095 47.0243 97.7768 47.0367ZM97.9127 52.1018C98.3901 52.1018 98.8267 52.1677 99.2185 52.2935C101.012 52.8693 102.029 54.5925 101.735 56.4602C101.372 58.7601 99.4858 60.4535 97.067 60.4535C96.5901 60.4535 96.1534 60.388 95.7612 60.2622C93.968 59.6864 92.9447 57.9632 93.239 56.0955C93.6019 53.7956 95.4939 52.1018 97.9127 52.1018Z" fill="#5B6271"/>
<path d="M132.428 40.2173C132.109 40.2173 131.838 40.4489 131.788 40.7642L128.096 64.1812C128.082 64.2668 128.087 64.3542 128.111 64.4375C128.135 64.5208 128.176 64.598 128.232 64.6638C128.289 64.7296 128.358 64.7825 128.437 64.8187C128.516 64.8549 128.601 64.8737 128.688 64.8737H133.067C133.385 64.8737 133.657 64.6417 133.707 64.3268L134.791 57.4502C134.841 57.1353 135.112 56.9033 135.431 56.9033H139.413C144.064 56.9033 148.013 53.5091 148.734 48.9099C149.461 44.2718 145.838 40.2274 140.703 40.2173H132.428ZM136.685 45.4449H139.87C142.493 45.4449 143.347 46.9923 143.077 48.7035C142.807 50.4184 141.481 51.6816 138.943 51.6816H135.701L136.685 45.4449ZM157.64 47.0367C156.535 47.0408 155.262 47.2673 153.834 47.8623C150.557 49.228 148.984 52.0505 148.316 54.1082C148.316 54.1082 146.19 60.3862 150.995 63.8352C150.995 63.8352 155.45 67.1557 160.468 63.6307L160.381 64.1812C160.368 64.2668 160.373 64.3542 160.396 64.4375C160.42 64.5208 160.461 64.598 160.518 64.6638C160.574 64.7296 160.644 64.7825 160.722 64.8187C160.801 64.8549 160.887 64.8737 160.973 64.8737H165.13C165.449 64.8737 165.72 64.6417 165.77 64.3268L168.299 48.2907C168.313 48.2051 168.308 48.1176 168.284 48.0341C168.261 47.9507 168.219 47.8734 168.163 47.8075C168.107 47.7416 168.037 47.6887 167.958 47.6524C167.879 47.6161 167.794 47.5973 167.707 47.5973H163.55C163.231 47.5973 162.96 47.8294 162.91 48.1442L162.774 49.0074C162.774 49.0074 160.958 47.0243 157.64 47.0367ZM157.776 52.1018C158.254 52.1018 158.69 52.1677 159.082 52.2935C160.876 52.8693 161.893 54.5925 161.598 56.4602C161.235 58.7601 159.349 60.4535 156.931 60.4535C156.454 60.4535 156.017 60.388 155.625 60.2622C153.832 59.6864 152.808 57.9632 153.103 56.0955C153.466 53.7956 155.358 52.1018 157.776 52.1018Z" fill="#9CA2AF"/>
<path d="M110.406 47.5976C110.077 47.5976 109.843 47.9194 109.943 48.2329L114.501 62.3756L110.38 69.0402C110.18 69.3638 110.412 69.7817 110.793 69.7817H115.663C115.803 69.7816 115.939 69.7455 116.061 69.6771C116.182 69.6086 116.284 69.51 116.356 69.3908L129.084 48.3345C129.28 48.0109 129.046 47.5972 128.668 47.5972H123.798C123.657 47.5973 123.519 47.634 123.397 47.7038C123.275 47.7735 123.173 47.8738 123.101 47.9949L118.091 56.4537L115.548 48.0576C115.465 47.7844 115.213 47.5972 114.928 47.5972L110.406 47.5976Z" fill="#5B6271"/>
<path d="M173.023 40.2173C172.704 40.2173 172.433 40.4493 172.383 40.7642L168.689 64.1803C168.676 64.2659 168.681 64.3535 168.704 64.4369C168.728 64.5203 168.769 64.5976 168.826 64.6635C168.882 64.7295 168.952 64.7824 169.03 64.8187C169.109 64.8549 169.195 64.8737 169.282 64.8737H173.661C173.979 64.8737 174.251 64.6417 174.3 64.3268L177.993 40.9098C178.006 40.8243 178.001 40.7369 177.978 40.6537C177.954 40.5704 177.913 40.4933 177.857 40.4275C177.8 40.3617 177.731 40.3089 177.652 40.2726C177.574 40.2363 177.488 40.2174 177.402 40.2173H173.023Z" fill="#9CA2AF"/>
<path d="M36.0568 40.2173C35.7747 40.2175 35.502 40.3183 35.2875 40.5016C35.0731 40.6849 34.9311 40.9387 34.887 41.2173L32.9432 53.5453C33.0339 52.9695 33.53 52.5453 34.113 52.5453H39.8088C45.5412 52.5453 50.4054 48.3635 51.2942 42.6965C51.3604 42.2734 51.3979 41.8464 51.4064 41.4182C49.9496 40.6544 48.2383 40.2173 46.3632 40.2173H36.0568Z" fill="#272F3F"/>
<path d="M51.4063 41.4187C51.3978 41.8468 51.3603 42.2739 51.2942 42.697C50.4054 48.3639 45.5407 52.5457 39.8088 52.5457H34.113C33.5304 52.5457 33.0338 52.9696 32.9432 53.5458L31.156 64.8742L30.0365 71.981C30.0146 72.1183 30.0228 72.2587 30.0605 72.3925C30.0982 72.5264 30.1645 72.6504 30.2548 72.7561C30.345 72.8619 30.4572 72.9468 30.5835 73.0049C30.7097 73.0631 30.8471 73.0932 30.9862 73.0931H37.1685C37.4506 73.0929 37.7233 72.9921 37.9377 72.8088C38.1521 72.6255 38.2942 72.3717 38.3383 72.0931L39.9667 61.7647C40.0108 61.486 40.153 61.2321 40.3676 61.0488C40.5822 60.8654 40.8552 60.7647 41.1374 60.7647H44.7773C50.5097 60.7647 55.3739 56.5829 56.2627 50.916C56.8939 46.8939 54.8682 43.2338 51.4063 41.4187Z" fill="#9CA2AF"/>
<path d="M29.0331 32C28.4505 32 27.954 32.4238 27.8633 32.9991L23.0119 63.7623C22.9199 64.3463 23.3712 64.8745 23.9625 64.8745H31.1568L32.9431 53.5461L34.8868 41.2181C34.9309 40.9395 35.073 40.6857 35.2874 40.5024C35.5018 40.3191 35.7746 40.2183 36.0567 40.218H46.3631C48.2386 40.218 49.9494 40.6556 51.4062 41.419C51.506 36.2596 47.2487 32 41.3954 32H29.0331Z" fill="#5B6271"/>
</svg>
