<svg width="200" height="105" viewBox="0 0 200 105" fill="none" xmlns="http://www.w3.org/2000/svg">
<path d="M114.475 92.0631C114.794 92.1693 115.092 92.3311 115.354 92.5409C115.616 92.7521 115.844 93.0019 116.031 93.2817C116.228 93.5801 116.377 93.9074 116.473 94.2517C116.577 94.6254 116.629 95.0118 116.628 95.3999C116.633 95.8837 116.55 96.3643 116.385 96.819C116.238 97.2264 116.01 97.5998 115.715 97.9166C115.426 98.2175 115.077 98.4547 114.692 98.6131C114.283 98.7818 113.844 98.8669 113.401 98.8631C112.556 98.8631 111.893 98.5732 111.413 97.9934H111.387V101.476H109.578V92.0097H111.387V92.7909H111.413C111.917 92.1981 112.597 91.9017 113.455 91.9017C113.802 91.9001 114.147 91.956 114.475 92.067M114.314 96.7383C114.642 96.3765 114.815 95.9 114.796 95.4117C114.796 94.8458 114.632 94.3901 114.304 94.0447C114.147 93.8753 113.956 93.7413 113.743 93.6515C113.531 93.5618 113.301 93.5182 113.071 93.5239C112.826 93.5217 112.584 93.5709 112.36 93.6684C112.15 93.7586 111.961 93.8916 111.805 94.059C111.647 94.2332 111.525 94.4366 111.445 94.6579C111.357 94.8975 111.312 95.1511 111.314 95.4065C111.308 95.7417 111.388 96.0729 111.546 96.3686C111.691 96.6417 111.911 96.8677 112.18 97.0195C112.453 97.1708 112.76 97.2485 113.072 97.2448C113.304 97.2527 113.534 97.2112 113.749 97.123C113.963 97.0348 114.156 96.9019 114.315 96.7331M124.701 92.0097V98.7459H122.987V97.9335H122.954C122.473 98.5532 121.801 98.8631 120.939 98.8631C120.497 98.867 120.059 98.782 119.651 98.6131C119.264 98.4552 118.915 98.2179 118.626 97.9166C118.331 97.5998 118.103 97.2264 117.955 96.819C117.633 95.9046 117.633 94.9071 117.955 93.9926C118.103 93.5829 118.328 93.2057 118.619 92.882C118.909 92.5701 119.259 92.3215 119.65 92.1521C120.04 91.9827 120.461 91.8961 120.886 91.8978C121.262 91.8847 121.636 91.9568 121.98 92.1085C122.324 92.2602 122.629 92.4877 122.873 92.774H122.9V92.0097H124.701ZM122.478 96.7318C122.644 96.5543 122.773 96.3456 122.857 96.1178C122.942 95.8901 122.98 95.6479 122.97 95.4052C122.987 94.9111 122.815 94.4293 122.489 94.0577C122.338 93.8839 122.151 93.7455 121.941 93.6523C121.731 93.5591 121.503 93.5135 121.273 93.5187C121.042 93.5132 120.812 93.5568 120.599 93.6466C120.386 93.7364 120.195 93.8703 120.037 94.0394C119.707 94.3866 119.541 94.8423 119.541 95.4065C119.521 95.8948 119.694 96.3713 120.023 96.7331C120.182 96.9019 120.375 97.0348 120.589 97.123C120.804 97.2112 121.035 97.2527 121.266 97.2448C121.493 97.2494 121.718 97.2062 121.927 97.118C122.136 97.0299 122.324 96.8987 122.478 96.7331M132.752 92.0097H130.882L129.341 96.1759H129.32L127.674 92.0097H125.784L128.478 98.328L127.284 101.476H129.13L132.752 92.0097ZM143.853 92.6164C143.438 92.1365 142.853 91.896 142.098 91.8952C141.64 91.8899 141.185 91.9855 140.768 92.1751C140.37 92.3581 140.023 92.634 139.755 92.9797H139.734C139.34 92.2567 138.673 91.8952 137.734 91.8952C137.355 91.8964 136.982 91.9855 136.643 92.1556C136.286 92.3345 135.971 92.5885 135.72 92.9003H135.699V92.0097H133.899V98.7459H135.703V95.3804C135.695 95.0329 135.76 94.6876 135.892 94.3662C135.995 94.1097 136.17 93.8889 136.397 93.7309C136.613 93.5898 136.867 93.5168 137.125 93.5213C137.921 93.5213 138.318 94.105 138.316 95.2724V98.755H140.122V95.3804C140.113 95.0336 140.175 94.6885 140.303 94.3662C140.403 94.1107 140.575 93.8899 140.799 93.7309C141.003 93.592 141.245 93.5188 141.492 93.5213C142.278 93.5213 142.671 94.105 142.671 95.2724V98.755H144.477V94.8349C144.477 93.8376 144.269 93.0999 143.853 92.6217M152.436 95.9689H147.724C147.816 96.3441 148.033 96.6768 148.34 96.9115C148.658 97.1459 149.045 97.269 149.441 97.2617C149.75 97.2697 150.057 97.2051 150.337 97.0731C150.616 96.941 150.861 96.7452 151.052 96.5014L152.223 97.5924C151.9 97.9922 151.487 98.3099 151.018 98.5193C150.48 98.7601 149.896 98.8788 149.307 98.867C148.69 98.8761 148.08 98.7287 147.535 98.4386C147.012 98.1558 146.581 97.7294 146.293 97.2096C145.983 96.6496 145.826 96.0178 145.837 95.3778C145.835 94.8973 145.923 94.4207 146.098 93.973C146.254 93.5621 146.491 93.1867 146.794 92.869C147.095 92.5614 147.456 92.3193 147.855 92.1582C148.276 91.9846 148.727 91.8961 149.182 91.8978C149.788 91.8862 150.387 92.0387 150.914 92.3391C151.41 92.6269 151.814 93.05 152.079 93.559C152.359 94.1034 152.5 94.7084 152.49 95.3205C152.499 95.5386 152.484 95.757 152.443 95.9715M148.277 93.796C147.997 94.0162 147.801 94.3253 147.721 94.6722H150.691C150.617 94.3365 150.438 94.0332 150.179 93.8064C149.914 93.5904 149.579 93.4788 149.237 93.4926C148.892 93.484 148.554 93.5907 148.277 93.796ZM158.903 92.0618C158.19 91.8213 157.412 91.8547 156.721 92.1556C156.347 92.3242 156.015 92.5742 155.749 92.8872H155.728V92.0097H153.922V98.7459H155.728V95.3609C155.728 94.7742 155.866 94.3207 156.142 94.0004C156.28 93.8423 156.452 93.7172 156.645 93.6345C156.838 93.5518 157.047 93.5136 157.257 93.5226C157.697 93.5226 158.022 93.6484 158.234 93.9001C158.446 94.1518 158.551 94.5858 158.551 95.2021V98.7511H160.352V94.7542C160.361 94.3079 160.302 93.8629 160.178 93.434C160.093 93.118 159.932 92.8274 159.71 92.5874C159.487 92.3474 159.21 92.1653 158.901 92.0566M162.765 98.2941C163.112 98.6734 163.583 98.8631 164.176 98.8631C164.516 98.8712 164.856 98.8348 165.187 98.755C165.456 98.6798 165.716 98.5737 165.961 98.4386L165.496 96.9974C165.236 97.142 164.946 97.2227 164.649 97.233C164.561 97.2408 164.473 97.2256 164.393 97.1888C164.313 97.152 164.244 97.095 164.193 97.0234C164.087 96.8237 164.039 96.5981 164.055 96.3725V93.5083H165.887V92.0097H164.055V89.6155L162.251 89.8095V92.0097H161.455V93.5057H162.251V96.6172C162.251 97.3541 162.424 97.9122 162.771 98.2915M166.677 97.8697C167.431 98.5326 168.408 98.8865 169.411 98.8604C170.26 98.8604 170.908 98.6673 171.355 98.2811C171.573 98.095 171.747 97.8621 171.863 97.5998C171.978 97.3374 172.034 97.0523 172.024 96.7657C172.026 96.6141 172.012 96.4628 171.984 96.3139C171.94 96.0883 171.847 95.8751 171.712 95.689C171.577 95.5028 171.403 95.3482 171.203 95.2359C170.952 95.0745 170.454 94.8575 169.708 94.5849C169.439 94.4911 169.18 94.3689 168.936 94.2204C168.869 94.1849 168.812 94.1329 168.77 94.0694C168.729 94.0059 168.704 93.9329 168.698 93.8572C168.695 93.7825 168.712 93.7085 168.748 93.6428C168.783 93.5771 168.836 93.5221 168.9 93.4835C169.036 93.3954 169.196 93.35 169.358 93.3533C169.637 93.3577 169.913 93.4184 170.169 93.5317C170.465 93.6603 170.736 93.8416 170.967 94.0668L171.843 92.7466C171.148 92.1798 170.274 91.8789 169.377 91.8978C168.952 91.891 168.531 91.9763 168.142 92.1478C167.792 92.2995 167.492 92.5451 167.273 92.8573C167.059 93.1692 166.947 93.54 166.953 93.9184C166.952 94.1165 166.977 94.314 167.027 94.5055C167.073 94.6759 167.147 94.8374 167.246 94.9833C167.34 95.1197 167.449 95.2458 167.569 95.3596C167.698 95.4799 167.842 95.5832 167.997 95.6668C168.155 95.7557 168.318 95.8352 168.486 95.9051C168.644 95.9728 168.825 96.0353 169.027 96.1082C169.346 96.211 169.586 96.297 169.745 96.3686C169.88 96.4215 170.006 96.4958 170.118 96.5886C170.159 96.6215 170.191 96.663 170.214 96.71C170.236 96.7571 170.248 96.8085 170.248 96.8607C170.249 96.9414 170.229 97.021 170.19 97.0917C170.151 97.1624 170.094 97.2218 170.026 97.2643C169.844 97.3769 169.632 97.431 169.419 97.4192C168.737 97.4192 168.115 97.1588 167.553 96.6381L166.68 97.8684M172.391 9.60476V69.7248C172.389 71.7798 171.571 73.7499 170.118 75.2029C168.665 76.6559 166.695 77.4731 164.64 77.4751H94.8907V95.8673H36.359C34.3041 95.8646 32.3342 95.047 30.8813 93.5938C29.4284 92.1407 28.6111 90.1706 28.6087 88.1157V17.3603C28.6111 15.3054 29.4284 13.3353 30.8813 11.8822C32.3342 10.429 34.3041 9.61143 36.359 9.60867L172.391 9.60476ZM178 4H36.359C34.6046 4 32.8673 4.34558 31.2464 5.01702C29.6256 5.68845 28.1528 6.67258 26.9123 7.91322C25.6718 9.15385 24.6878 10.6267 24.0165 12.2476C23.3452 13.8686 22.9998 15.6059 23 17.3603L23 88.1157C22.9998 89.8703 23.3453 91.6077 24.0166 93.2287C24.688 94.8497 25.6721 96.3226 26.9128 97.5632C28.1534 98.8039 29.6263 99.788 31.2473 100.459C32.8684 101.131 34.6057 101.476 36.3603 101.476H99.1623C99.5164 101.476 99.856 101.335 100.106 101.084C100.357 100.834 100.498 100.494 100.498 100.14V83.0851H164.637C168.18 83.0851 171.579 81.6775 174.084 79.172C176.59 76.6664 177.997 73.2682 177.997 69.7248V4H178ZM57.7977 35.9843C58.7858 36.3115 59.7083 36.8109 60.5226 37.4593C61.3357 38.1133 62.0436 38.8883 62.6213 39.7572C63.2317 40.6814 63.693 41.6959 63.9883 42.7633C64.3126 43.9217 64.4725 45.1199 64.4635 46.3228C64.4794 47.8212 64.2263 49.3104 63.7162 50.7194C63.2634 51.9839 62.5567 53.1425 61.6397 54.1239C60.743 55.0572 59.6615 55.7933 58.4643 56.2851C57.1966 56.8073 55.837 57.0699 54.4661 57.0571C51.851 57.0571 49.7965 56.1597 48.3028 54.3648H48.2182V60.1583C48.2183 60.5114 48.1489 60.8611 48.0139 61.1873C47.8788 61.5136 47.6808 61.81 47.4311 62.0597C47.1814 62.3094 46.885 62.5074 46.5587 62.6425C46.2325 62.7775 45.8828 62.8469 45.5297 62.8468H42.616V35.8267H48.2143V38.2275H48.2989C49.8612 36.3909 51.9703 35.4726 54.6262 35.4726C55.703 35.4676 56.7733 35.6404 57.7938 35.9843M57.2926 50.4629C58.2881 49.4049 58.7863 48.0353 58.7872 46.354C58.7872 44.6017 58.2785 43.1895 57.2613 42.1176C56.7753 41.5929 56.1832 41.1776 55.5244 40.8993C54.8656 40.6209 54.1552 40.4859 53.4402 40.5032C52.6829 40.4963 51.9327 40.6493 51.2386 40.9524C50.5861 41.2363 49.9996 41.6526 49.5162 42.1749C49.025 42.715 48.6446 43.3462 48.3965 44.0327C48.1233 44.7739 47.9878 45.5589 47.9968 46.3488C47.9767 47.392 48.2241 48.4229 48.7155 49.3432C49.1647 50.1883 49.8458 50.8875 50.6788 51.3586C51.5248 51.8298 52.4797 52.0709 53.448 52.0578C55.0233 52.0578 56.3074 51.5283 57.3004 50.4694L57.2926 50.4629ZM87.4749 48.0817H72.8427C73.1253 49.2472 73.8001 50.2801 74.7539 51.0071C75.6913 51.7171 76.8283 52.0786 78.1649 52.0916C79.412 52.1219 80.6385 51.7703 81.6801 51.0839C82.1788 50.7634 82.7707 50.6196 83.3608 50.6756C83.951 50.7315 84.5053 50.984 84.9349 51.3925L86.794 53.1149C85.7978 54.3505 84.5244 55.334 83.0771 55.9856C81.546 56.7026 79.778 57.061 77.773 57.061C75.8604 57.0899 73.9716 56.634 72.2829 55.7357C70.662 54.8583 69.3252 53.5368 68.4292 51.9263C67.4883 50.2667 67.017 48.3733 67.0153 46.246C67.0029 44.7581 67.2724 43.2813 67.8095 41.8937C68.294 40.6191 69.0288 39.4544 69.9706 38.4683C70.9017 37.5157 72.0195 36.7657 73.2541 36.2655C74.5577 35.7316 75.9543 35.4621 77.3629 35.4726C79.3792 35.4726 81.1676 35.9283 82.7281 36.8396C84.2667 37.7288 85.5196 39.0386 86.3397 40.6152C87.2094 42.3015 87.6477 44.177 87.6156 46.0741C87.6156 47.0623 87.5674 47.7315 87.4736 48.0778M74.5846 41.3286C73.7549 41.9509 73.1807 42.8562 72.8622 44.0444H82.0694C81.7777 42.9022 81.2483 42.0078 80.481 41.3612C79.7138 40.7146 78.7395 40.3926 77.5582 40.3952C76.4907 40.3662 75.4441 40.6948 74.5846 41.3286ZM111.713 35.8267V56.7069H108.927C108.256 56.7069 107.614 56.4407 107.14 55.9668C106.666 55.4928 106.4 54.8501 106.4 54.1799H106.301C104.806 56.1015 102.723 57.0619 100.051 57.061C98.6804 57.074 97.3207 56.811 96.0533 56.2877C94.8558 55.796 93.7745 55.0589 92.8792 54.1239C91.9596 53.1437 91.2507 51.9855 90.7961 50.7207C89.7951 47.8867 89.7951 44.7953 90.7961 41.9614C91.2495 40.69 91.9475 39.5197 92.8506 38.5165C93.7257 37.5609 94.7897 36.7975 95.9752 36.2746C97.2013 35.7305 98.5291 35.4531 99.8705 35.4609C102.417 35.4609 104.472 36.3653 106.034 38.1741H106.116V35.8267H111.713ZM104.822 50.4629C105.837 49.4049 106.345 48.0353 106.345 46.354C106.345 44.6728 105.847 43.2815 104.85 42.1801C104.384 41.6412 103.805 41.2119 103.153 40.9229C102.502 40.6339 101.795 40.4924 101.083 40.5084C100.366 40.4911 99.6546 40.6254 98.994 40.9028C98.3334 41.1801 97.7389 41.5941 97.2498 42.1176C96.2282 43.1895 95.717 44.6017 95.7161 46.354C95.7161 48.0387 96.2143 49.4083 97.2107 50.4629C98.2071 51.5175 99.4912 52.0469 101.063 52.0512C101.767 52.0661 102.466 51.9323 103.115 51.6586C103.764 51.385 104.348 50.9775 104.828 50.4629H104.822ZM120.427 55.7135C122.116 56.6278 124.013 57.0931 125.934 57.0649C127.786 57.0958 129.624 56.7411 131.331 56.0234C132.925 55.3334 134.203 54.4285 135.164 53.3089L133.012 51.4094C132.154 50.653 130.893 50.4981 129.915 51.0852C128.88 51.7154 127.688 52.0391 126.477 52.0187C124.818 52.0187 123.473 51.4836 122.441 50.4134C121.409 49.3432 120.888 47.9511 120.878 46.2369C120.869 45.4472 121.001 44.6623 121.269 43.9195C121.513 43.2412 121.895 42.6207 122.39 42.0968C122.89 41.585 123.493 41.1848 124.159 40.9224C124.882 40.6312 125.655 40.4857 126.434 40.4941C127.361 40.4758 128.281 40.668 129.124 41.0563C129.966 41.4446 130.71 42.0189 131.299 42.736L135.074 39.4812C134.035 38.1791 132.687 37.1567 131.153 36.5063C129.593 35.8235 127.909 35.4715 126.206 35.4726C124.078 35.4726 122.178 35.9248 120.506 36.8292C118.866 37.7041 117.511 39.03 116.6 40.6503C115.67 42.3081 115.204 44.1872 115.202 46.2876C115.2 48.3881 115.663 50.2602 116.59 51.9041C117.481 53.5117 118.809 54.8336 120.421 55.7161M153.797 35.9439H153.791C151.532 35.2379 149.099 35.3298 146.9 36.2043C145.746 36.6864 144.715 37.4214 143.883 38.355H143.8V30.2194C143.8 29.5064 143.516 28.8228 143.012 28.3187C142.508 27.8146 141.824 27.5312 141.111 27.5309H138.202V56.7069H143.8V46.121C143.8 44.2844 144.231 42.8888 145.094 41.934C145.957 40.9793 147.154 40.5019 148.685 40.5019C150.078 40.5071 151.105 40.8912 151.766 41.6541C152.428 42.417 152.758 43.7246 152.758 45.5768V56.7277H158.376V44.1577C158.404 42.7912 158.215 41.429 157.816 40.1218C157.537 39.1512 157.025 38.2635 156.324 37.5359C155.624 36.8082 154.757 36.2626 153.797 35.9465V35.9439Z" fill="#5B6271"/>
</svg>
