<svg width="200" height="105" viewBox="0 0 200 105" fill="none" xmlns="http://www.w3.org/2000/svg">
<path d="M143.993 19H57.0067C38.2253 19 23 34.1668 23 52.8759V52.9938C23 71.7029 38.2253 86.8697 57.0067 86.8697H143.993C162.774 86.8697 178 71.7029 178 52.9938V52.8759C178 34.1668 162.774 19 143.993 19Z" fill="#5B6271"/>
<path d="M54.3566 57.9084L44.0089 40.97H53.9069L58.8047 49.5862H59.114L64.0476 40.9629H73.7385L63.3908 57.9084V65.0214H54.3472L54.3566 57.9084Z" fill="#C7CAD1"/>
<path d="M71.1196 52.9972C71.1196 44.9571 76.6362 40.0776 85.3989 40.0776C94.1617 40.0776 99.6782 44.9571 99.6782 52.9972C99.6782 61.0372 94.1593 65.9143 85.3989 65.9143C76.6386 65.9143 71.1196 61.0372 71.1196 52.9972ZM90.8727 52.9972C90.8727 49.4573 88.8021 47.4301 85.3989 47.4301C81.9956 47.4301 79.949 49.4573 79.949 52.9972C79.949 56.537 81.9838 58.5619 85.3989 58.5619C88.8141 58.5619 90.8798 56.5346 90.8798 52.9972H90.8727Z" fill="#C7CAD1"/>
<path d="M101.122 53.065C101.122 45.0249 106.881 40.283 115.401 40.283C119.576 40.283 122.505 41.2788 124.816 42.5851V50.6939H124.747C121.92 48.7972 119.471 47.7042 116.437 47.7042C112.781 47.7042 110.161 49.601 110.161 52.9962C110.161 56.5005 112.85 58.2527 116.401 58.2527C119.54 58.2527 122.058 57.1881 124.747 55.2297H124.816V63.4404C122.912 64.5406 119.58 65.7071 115.332 65.7071C106.534 65.7095 101.122 61.105 101.122 53.065Z" fill="#C7CAD1"/>
<path d="M126.331 52.9972C126.331 44.9571 131.848 40.0776 140.61 40.0776C149.374 40.0776 154.89 44.9571 154.89 52.9972C154.89 61.0372 149.374 65.9143 140.61 65.9143C131.848 65.9143 126.331 61.0372 126.331 52.9972ZM146.084 52.9972C146.084 49.4573 144.016 47.4301 140.61 47.4301C137.205 47.4301 135.163 49.4573 135.163 52.9972C135.163 56.537 137.198 58.5619 140.61 58.5619C144.023 58.5619 146.091 56.5346 146.091 52.9972H146.084Z" fill="#C7CAD1"/>
</svg>
