<svg width="176" height="64" viewBox="0 0 176 64" fill="none" xmlns="http://www.w3.org/2000/svg">
<path fill-rule="evenodd" clip-rule="evenodd" d="M80.9909 16.0366C80.9909 16.0366 73.3653 16.1839 71.7215 21.4896V16.0366C71.7215 16.0366 63 15.1032 63 22.6686C63 30.234 63.0913 63.9696 63.0913 63.9696C63.0913 63.9696 71.7671 64.8538 71.7671 57.0919V43.6455C71.7671 43.6455 74.6438 48.5581 80.1233 48.5581C86.4247 48.5581 93 43.9402 93 31.0692C93 15.8401 80.9909 16.0366 80.9909 16.0366ZM76.8812 41.0418C74.3698 41.0418 71.3561 37.5538 71.3561 31.4622C71.3561 25.3705 74.3241 22.7177 77.7031 22.7177C77.7031 22.7177 84.2785 23.0125 84.2785 31.2657C84.2785 39.5189 79.7123 41.0418 76.8812 41.0418ZM13.6379 40.0627H28.0093C30.1973 40.0627 31.9875 41.8589 31.9875 44.0045C31.9875 46.2 30.1973 47.9962 28.0093 47.9962H3.99067C2.94638 48.0461 1.90209 47.5971 1.15618 46.8486C-0.385392 45.3018 -0.385392 42.7571 1.15618 41.2103L25.2245 17.1601C26.7661 15.6133 29.3022 15.6133 30.8438 17.1601C32.3853 18.7069 32.3853 21.2516 30.8438 22.7984L13.6379 40.0627ZM12.208 23.7576H4.05246C1.82361 23.7576 7.45058e-09 21.9748 7.45058e-09 19.8547C7.45058e-09 17.7346 1.82361 16 4.05246 16H20.3636L12.208 23.7576ZM36.7755 20.5991C38.7367 16.0968 47.3173 16 47.3173 16C60.605 16 61.0462 24.9077 60.9972 24.9077V40.6899C60.9972 48.0968 52.2695 47.2254 52.2695 47.2254V42.7716C49.4747 47.5159 43.5909 48 43.5909 48C33 48 33 39.1407 33 39.1407C33 25.5371 52.4166 27.764 52.4166 27.764C52.4166 27.764 53.0541 21.9546 46.1405 22.0999C42.6593 22.2451 39.2761 23.3586 36.4322 25.295C36.1871 23.4554 36.7755 20.5991 36.7755 20.5991ZM41.4824 37.2042C41.4824 37.2042 41.5805 41.8517 46.0914 41.7065C53.2991 41.5128 52.5637 33.7186 52.4656 33.7186C52.4656 32.5567 46.925 33.2345 46.925 33.2345C40.845 33.8154 41.4824 37.2042 41.4824 37.2042ZM103.721 21.4896C105.365 16.1839 112.991 16.0366 112.991 16.0366C112.991 16.0366 125 15.8401 125 31.0692C125 43.9402 118.425 48.5581 112.123 48.5581C106.644 48.5581 103.767 43.6455 103.767 43.6455V57.0919C103.767 64.8538 95.0913 63.9696 95.0913 63.9696C95.0913 63.9696 95 30.234 95 22.6686C95 15.1032 103.721 16.0366 103.721 16.0366V21.4896ZM103.356 31.4622C103.356 37.5538 106.37 41.0418 108.881 41.0418C111.712 41.0418 116.278 39.5189 116.278 31.2657C116.278 23.0125 109.703 22.7177 109.703 22.7177C106.324 22.7177 103.356 25.3705 103.356 31.4622ZM148.584 17.7178C146.533 16.589 144.202 16 141.871 16C133.62 16 127 23.1656 127 32C127 40.8344 133.666 48 141.871 48C142.298 48 142.647 47.9588 143.025 47.9142L143.13 47.9018C145.041 47.6074 146.906 47.0675 148.631 46.1841C149.89 45.4969 151.102 44.5644 152.127 43.4847C153.2 42.2086 153.946 40.6871 154.319 39.0184H153.06C153.06 39.0184 150.729 41.5215 143.55 41.5215C136.37 41.5215 135.391 33.9632 135.391 33.9632H154.925C155.111 31.6564 155.484 21.7914 148.584 17.7178ZM146.953 28.8589H135.391C135.391 28.8589 135.671 21.8405 141.452 21.8405C147.232 21.8405 146.953 28.8589 146.953 28.8589ZM165.795 33.2027C165.795 27.0508 168.718 24.3718 172.513 24.3718C173.744 24.471 174.923 24.8679 176 25.4632V16.0369C174 16.0369 168 16.0369 165.795 21.4943V16.0369C165.795 16.0369 157 15.0943 157 22.7346C157 30.3748 157.051 47.9871 157.051 47.9871C157.051 47.9871 165.846 48.6321 165.846 40.7934C165.795 33.9965 165.795 33.3516 165.795 33.2027ZM169.4 44.4224H168V44H171.371V44.4224H170V48H169.429L169.4 44.4224ZM172.2 44H172.886L173.771 46.1366L174.086 46.9565H174.114L174.429 46.1366L175.314 44H176V48H175.457V45.7888C175.457 45.6151 175.471 45.4105 175.486 45.2057L175.486 45.205C175.5 45 175.514 44.795 175.514 44.6211H175.486L175.143 45.4907L174.257 47.5776H173.914L173.057 45.4907L172.686 44.6211H172.657C172.686 44.9689 172.714 45.441 172.714 45.7888V47.9752H172.171L172.2 44Z" fill="#005CB9"/>
</svg>
